{"title":"Tatt av kvinnen[x264][AC3(5.1)].mkv","uid":5283343,"size":885406190,"categoryP":"video","categoryS":"movies","magnet":"?xt=urn:btih:0a25839265f134dbe1c3670f7b814536a8ddb9e2&amp;dn=Tatt+av+kvinnen%5Bx264%5D%5BAC3%285.1%29%5D.mkv&amp;tr=udp%3A%2F%2Ftracker.openbittorrent.com%3A80&amp;tr=udp%3A%2F%2Fopen.demonii.com%3A1337&amp;tr=udp%3A%2F%2Ftracker.coppersurfer.tk%3A6969&amp;tr=udp%3A%2F%2Fexodus.desync.com%3A6969","seeders":1,"leechers":0,"uploader":"Zen_Bud","files":-1,"time":1263629505,"description":"General\nComplete name                    : Tatt av kvinnen.mkv\nFormat                           : Matroska\nFile size                        : 844 MiB\nDuration                         : 1h 27mn\nOverall bit rate                 : 1 350 Kbps\n\n\nVideo\nID                               : 1\nFormat                           : AVC\nDuration                         : 1h 27mn\nBit rate                         : 875 Kbps\nWidth                            : 720 pixels\nHeight                           : 432 pixels\nDisplay aspect ratio             : 2.35:1\nFrame rate                       : 25.000 fps\nResolution                       : 8 bits\nColorimetry                      : 4:2:0\nScan type                        : Progressive\nBits/(Pixel*Frame)               : 0.113\nStream size                      : 547 MiB (65%)\nWriting library                  : x264 core 79\n\n\nAudio\nID                               : 2\nFormat                           : AC-3\nFormat/Info                      : Audio Coding 3\nCodec ID                         : A_AC3\nDuration                         : 1h 27mn\nBit rate mode                    : Constant\nBit rate                         : 448 Kbps\nChannel(s)                       : 6 channels\nChannel positions                : Front: L C R, Surround: L R, LFE\nSampling rate                    : 48.0 KHz\nStream size                      : 280 MiB (33%)\nLanguage                         : Norwegian\n\nText #1\nLanguage                         : Swedish\n\nText #2\nLanguage                         : Norwegian\n\nText #3\nLanguage                         : Finnish\n\nText #4\nLanguage                         : English\n\n","torrent":{"xt":"urn:btih:0a25839265f134dbe1c3670f7b814536a8ddb9e2","amp;dn":"Tatt+av+kvinnen%5Bx264%5D%5BAC3%285.1%29%5D.mkv","amp;tr":["udp%3A%2F%2Ftracker.openbittorrent.com%3A80","udp%3A%2F%2Fopen.demonii.com%3A1337","udp%3A%2F%2Ftracker.coppersurfer.tk%3A6969","udp%3A%2F%2Fexodus.desync.com%3A6969"],"infoHash":"0a25839265f134dbe1c3670f7b814536a8ddb9e2","infoHashBuffer":{"type":"Buffer","data":[10,37,131,146,101,241,52,219,225,195,103,15,123,129,69,54,168,221,185,226]},"announce":[],"urlList":[]}}